<svg width="554" height="154" viewBox="0 0 554 154" fill="none" xmlns="http://www.w3.org/2000/svg">
<path d="M28.1953 87.9609V86.9609H27.1953V87.9609H28.1953ZM28.1953 126V127H29.1953V126H28.1953ZM10.4062 126H9.40625V127H10.4062V126ZM10.4062 23.625V22.625H9.40625V23.625H10.4062ZM76.7812 32.5547L76.1172 33.3024L76.1198 33.3047L76.7812 32.5547ZM76.9922 79.5938L76.3472 78.8295L76.3445 78.8318L76.9922 79.5938ZM28.1953 73.6875H27.1953V74.6875H28.1953V73.6875ZM64.0547 69.2578L64.7184 70.0058L64.7242 70.0006L64.0547 69.2578ZM63.9844 43.1016L63.2822 43.8136L63.2873 43.8186L63.9844 43.1016ZM50.0625 37.9688L50.0784 36.9689L50.0704 36.9688H50.0625V37.9688ZM28.1953 37.9688V36.9688H27.1953V37.9688H28.1953ZM27.1953 87.9609V126H29.1953V87.9609H27.1953ZM28.1953 125H10.4062V127H28.1953V125ZM11.4062 126V23.625H9.40625V126H11.4062ZM10.4062 24.625H49.5703V22.625H10.4062V24.625ZM49.5703 24.625C60.8326 24.625 69.6432 27.5527 76.1172 33.3024L77.4453 31.807C70.5131 25.6504 61.183 22.625 49.5703 22.625V24.625ZM76.1198 33.3047C82.634 39.0499 85.9062 46.6412 85.9062 56.1797H87.9062C87.9062 46.1244 84.4285 37.9658 77.4427 31.8047L76.1198 33.3047ZM85.9062 56.1797C85.9062 65.9687 82.6943 73.4728 76.3472 78.8295L77.6372 80.358C84.5089 74.5584 87.9062 66.4531 87.9062 56.1797H85.9062ZM76.3445 78.8318C70.0208 84.207 61.0707 86.9609 49.3594 86.9609V88.9609C61.3668 88.9609 70.8385 86.1368 77.6398 80.3557L76.3445 78.8318ZM49.3594 86.9609H28.1953V88.9609H49.3594V86.9609ZM28.1953 74.6875H49.5703V72.6875H28.1953V74.6875ZM49.5703 74.6875C56.0407 74.6875 61.143 73.1784 64.7184 70.0058L63.391 68.5098C60.3101 71.2435 55.7562 72.6875 49.5703 72.6875V74.6875ZM64.7242 70.0006C68.3142 66.7646 70.0469 62.1509 70.0469 56.3203H68.0469C68.0469 61.7397 66.4515 65.751 63.3851 68.515L64.7242 70.0006ZM70.0469 56.3203C70.0469 50.5701 68.284 45.887 64.6814 42.3846L63.2873 43.8186C66.4348 46.8786 68.0469 51.008 68.0469 56.3203H70.0469ZM64.6865 42.3895C61.0859 38.8389 56.1754 37.0657 50.0784 36.9689L50.0466 38.9686C55.7621 39.0593 60.1329 40.708 63.2822 43.8136L64.6865 42.3895ZM50.0625 36.9688H28.1953V38.9688H50.0625V36.9688ZM27.1953 37.9688V73.6875H29.1953V37.9688H27.1953ZM145.477 126L144.588 126.459L144.867 127H145.477V126ZM143.508 118.898L144.493 118.729L144.158 116.775L142.786 118.206L143.508 118.898ZM106.594 86.0625L107.177 86.8745L107.179 86.8737L106.594 86.0625ZM142.945 79.5234V80.5234H143.945V79.5234H142.945ZM139.641 65.1094L138.905 65.7871L138.912 65.7943L139.641 65.1094ZM120.023 64.4766L120.635 65.2676L120.645 65.2603L120.023 64.4766ZM116.297 71.8594V72.8594H117.297V71.8594H116.297ZM99.2109 71.8594H98.2109V72.8594H99.2109V71.8594ZM103.359 60.1875L104.153 60.7957L104.157 60.7908L103.359 60.1875ZM114.609 51.6094L114.213 50.6912L114.21 50.6926L114.609 51.6094ZM151.875 55.2656L151.228 56.0277L151.231 56.0311L151.875 55.2656ZM160.031 74.1094H161.031V74.1007L161.031 74.092L160.031 74.1094ZM162.914 124.805H163.914V124.581L163.819 124.378L162.914 124.805ZM162.914 126V127H163.914V126H162.914ZM136.195 111.234L135.715 110.357L135.71 110.36L136.195 111.234ZM142.945 104.625L143.824 105.102L143.945 104.879V104.625H142.945ZM142.945 90.2812H143.945V89.2812H142.945V90.2812ZM117.914 110.812L117.24 111.551L117.248 111.559L117.257 111.566L117.914 110.812ZM146.365 125.541C145.689 124.232 145.053 121.992 144.493 118.729L142.522 119.067C143.088 122.368 143.764 124.862 144.588 126.459L146.365 125.541ZM142.786 118.206C137.538 123.681 131.142 126.406 123.539 126.406V128.406C131.686 128.406 138.603 125.46 144.23 119.59L142.786 118.206ZM123.539 126.406C116.1 126.406 110.119 124.29 105.506 120.125L104.166 121.609C109.209 126.163 115.697 128.406 123.539 128.406V126.406ZM105.506 120.125C100.885 115.952 98.5938 110.83 98.5938 104.695H96.5938C96.5938 111.404 99.1308 117.063 104.166 121.609L105.506 120.125ZM98.5938 104.695C98.5938 96.8713 101.467 90.9788 107.177 86.8745L106.01 85.2505C99.7204 89.7712 96.5938 96.3006 96.5938 104.695H98.5938ZM107.179 86.8737C112.989 82.6848 121.376 80.5234 132.469 80.5234V78.5234C121.156 78.5234 112.292 80.7215 106.009 85.2513L107.179 86.8737ZM132.469 80.5234H142.945V78.5234H132.469V80.5234ZM143.945 79.5234V74.5312H141.945V79.5234H143.945ZM143.945 74.5312C143.945 70.3993 142.784 66.9932 140.369 64.4245L138.912 65.7943C140.904 67.913 141.945 70.7882 141.945 74.5312H143.945ZM140.376 64.4317C137.92 61.7663 134.255 60.5234 129.586 60.5234V62.5234C133.917 62.5234 136.955 63.6712 138.905 65.7871L140.376 64.4317ZM129.586 60.5234C125.523 60.5234 122.101 61.5545 119.402 63.6928L120.645 65.2603C122.915 63.4612 125.868 62.5234 129.586 62.5234V60.5234ZM119.412 63.6856C116.696 65.7865 115.297 68.5333 115.297 71.8594H117.297C117.297 69.1854 118.382 67.0104 120.635 65.2675L119.412 63.6856ZM116.297 70.8594H99.2109V72.8594H116.297V70.8594ZM100.211 71.8594C100.211 67.9275 101.509 64.2472 104.153 60.7957L102.566 59.5793C99.679 63.3466 98.2109 67.4475 98.2109 71.8594H100.211ZM104.157 60.7908C106.806 57.2881 110.412 54.5289 115.009 52.5262L114.21 50.6926C109.338 52.8148 105.444 55.7744 102.562 59.5842L104.157 60.7908ZM115.005 52.5276C119.647 50.5254 124.83 49.5156 130.57 49.5156V47.5156C124.592 47.5156 119.134 48.5683 114.213 50.6912L115.005 52.5276ZM130.57 49.5156C139.308 49.5156 146.157 51.7204 151.228 56.0277L152.522 54.5035C146.999 49.8109 139.645 47.5156 130.57 47.5156V49.5156ZM151.231 56.0311C156.268 60.2655 158.895 66.2516 159.031 74.1267L161.031 74.092C160.886 65.7484 158.076 59.172 152.519 54.5002L151.231 56.0311ZM159.031 74.1094V108.422H161.031V74.1094H159.031ZM159.031 108.422C159.031 115.344 160.001 120.969 162.009 125.231L163.819 124.378C161.984 120.485 161.031 115.188 161.031 108.422H159.031ZM161.914 124.805V126H163.914V124.805H161.914ZM162.914 125H145.477V127H162.914V125ZM126.703 114.695C130.248 114.695 133.579 113.832 136.681 112.109L135.71 110.36C132.905 111.918 129.908 112.695 126.703 112.695V114.695ZM136.675 112.112C139.829 110.387 142.225 108.051 143.824 105.102L142.066 104.148C140.666 106.73 138.562 108.8 135.715 110.357L136.675 112.112ZM143.945 104.625V90.2812H141.945V104.625H143.945ZM142.945 89.2812H133.734V91.2812H142.945V89.2812ZM133.734 89.2812C127.32 89.2812 122.323 90.3924 118.892 92.7633L120.03 94.4086C122.974 92.3732 127.492 91.2812 133.734 91.2812V89.2812ZM118.892 92.7633C115.422 95.162 113.68 98.5936 113.68 102.938H115.68C115.68 99.2189 117.125 96.4162 120.03 94.4086L118.892 92.7633ZM113.68 102.938C113.68 106.461 114.849 109.368 117.24 111.551L118.588 110.074C116.666 108.319 115.68 105.976 115.68 102.938H113.68ZM117.257 111.566C119.684 113.684 122.868 114.695 126.703 114.695V112.695C123.226 112.695 120.55 111.785 118.571 110.059L117.257 111.566ZM217.758 65.5312L217.593 66.5176L218.753 66.7108L218.758 65.5356L217.758 65.5312ZM194.977 73.9688L194.066 73.556L193.977 73.7528V73.9688H194.977ZM194.977 126V127H195.977V126H194.977ZM177.891 126H176.891V127H177.891V126ZM177.891 49.9219V48.9219H176.891V49.9219H177.891ZM194.203 49.9219L195.202 49.8723L195.155 48.9219H194.203V49.9219ZM194.625 58.4297L193.626 58.4792L193.784 61.6656L195.473 58.9591L194.625 58.4297ZM217.828 49.5L218.828 49.5044L218.831 48.8315L218.209 48.5753L217.828 49.5ZM217.922 64.5449C215.615 64.1604 213.24 63.9688 210.797 63.9688V65.9688C213.135 65.9688 215.4 66.1521 217.593 66.5176L217.922 64.5449ZM210.797 63.9688C206.759 63.9688 203.301 64.7424 200.476 66.3496C197.64 67.963 195.504 70.3811 194.066 73.556L195.887 74.3815C197.168 71.5564 199.028 69.4745 201.465 68.0879C203.914 66.6951 207.007 65.9688 210.797 65.9688V63.9688ZM193.977 73.9688V126H195.977V73.9688H193.977ZM194.977 125H177.891V127H194.977V125ZM178.891 126V49.9219H176.891V126H178.891ZM177.891 50.9219H194.203V48.9219H177.891V50.9219ZM193.204 49.9714L193.626 58.4792L195.624 58.3802L195.202 49.8723L193.204 49.9714ZM195.473 58.9591C199.43 52.6194 204.84 49.5156 211.781 49.5156V47.5156C204.097 47.5156 198.07 51.0212 193.777 57.9002L195.473 58.9591ZM211.781 49.5156C214.138 49.5156 216.013 49.8342 217.447 50.4247L218.209 48.5753C216.455 47.8533 214.299 47.5156 211.781 47.5156V49.5156ZM216.828 49.4956L216.758 65.5269L218.758 65.5356L218.828 49.5044L216.828 49.4956ZM253.477 31.4297H254.477V30.4297H253.477V31.4297ZM253.477 49.9219H252.477V50.9219H253.477V49.9219ZM266.906 49.9219H267.906V48.9219H266.906V49.9219ZM266.906 62.5781V63.5781H267.906V62.5781H266.906ZM253.477 62.5781V61.5781H252.477V62.5781H253.477ZM255.164 111.375L254.405 112.026L254.417 112.04L254.43 112.054L255.164 111.375ZM267.328 112.57H268.328V111.311L267.102 111.596L267.328 112.57ZM267.328 125.789L267.595 126.753L268.328 126.55V125.789H267.328ZM236.391 62.5781H237.391V61.5781H236.391V62.5781ZM223.875 62.5781H222.875V63.5781H223.875V62.5781ZM223.875 49.9219V48.9219H222.875V49.9219H223.875ZM236.391 49.9219V50.9219H237.391V49.9219H236.391ZM236.391 31.4297V30.4297H235.391V31.4297H236.391ZM252.477 31.4297V49.9219H254.477V31.4297H252.477ZM253.477 50.9219H266.906V48.9219H253.477V50.9219ZM265.906 49.9219V62.5781H267.906V49.9219H265.906ZM266.906 61.5781H253.477V63.5781H266.906V61.5781ZM252.477 62.5781V105.047H254.477V62.5781H252.477ZM252.477 105.047C252.477 108.042 253.049 110.444 254.405 112.026L255.923 110.724C255.029 109.681 254.477 107.864 254.477 105.047H252.477ZM254.43 112.054C255.889 113.63 258.307 114.273 261.352 114.273V112.273C258.489 112.273 256.783 111.651 255.898 110.696L254.43 112.054ZM261.352 114.273C263.4 114.273 265.469 114.029 267.555 113.544L267.102 111.596C265.156 112.049 263.24 112.273 261.352 112.273V114.273ZM266.328 112.57V125.789H268.328V112.57H266.328ZM267.061 124.825C263.247 125.882 259.587 126.406 256.078 126.406V128.406C259.788 128.406 263.628 127.852 267.595 126.753L267.061 124.825ZM256.078 126.406C249.697 126.406 245.086 124.65 242.054 121.303C239.004 117.937 237.391 112.791 237.391 105.68H235.391C235.391 113.053 237.059 118.77 240.571 122.646C244.101 126.541 249.335 128.406 256.078 128.406V126.406ZM237.391 105.68V62.5781H235.391V105.68H237.391ZM236.391 61.5781H223.875V63.5781H236.391V61.5781ZM224.875 62.5781V49.9219H222.875V62.5781H224.875ZM223.875 50.9219H236.391V48.9219H223.875V50.9219ZM237.391 49.9219V31.4297H235.391V49.9219H237.391ZM236.391 32.4297H253.477V30.4297H236.391V32.4297ZM295.875 49.9219L296.873 49.866L296.821 48.9219H295.875V49.9219ZM296.367 58.7109L295.369 58.7668L295.511 61.3135L297.138 59.3485L296.367 58.7109ZM342.703 75.7266H343.703V75.7188L343.703 75.7111L342.703 75.7266ZM342.703 126V127H343.703V126H342.703ZM325.617 126H324.617V127H325.617V126ZM322.453 66.0234L321.702 66.6841L321.709 66.692L321.717 66.6998L322.453 66.0234ZM296.859 71.8594L295.98 71.3833L295.859 71.6061V71.8594H296.859ZM296.859 126V127H297.859V126H296.859ZM279.773 126H278.773V127H279.773V126ZM279.773 49.9219V48.9219H278.773V49.9219H279.773ZM294.877 49.9778L295.369 58.7668L297.366 58.655L296.873 49.866L294.877 49.9778ZM297.138 59.3485C302.565 52.7906 309.661 49.5156 318.516 49.5156V47.5156C309.089 47.5156 301.42 51.0376 295.597 58.0734L297.138 59.3485ZM318.516 49.5156C326.244 49.5156 331.91 51.7217 335.698 55.9827C339.507 60.2684 341.565 66.7965 341.703 75.7421L343.703 75.7111C343.56 66.516 341.446 59.4386 337.193 54.654C332.918 49.8447 326.631 47.5156 318.516 47.5156V49.5156ZM341.703 75.7266V126H343.703V75.7266H341.703ZM342.703 125H325.617V127H342.703V125ZM326.617 126V76.7109H324.617V126H326.617ZM326.617 76.7109C326.617 71.7646 325.541 67.907 323.19 65.347L321.717 66.6998C323.584 68.7337 324.617 72.001 324.617 76.7109H326.617ZM323.204 65.3628C320.871 62.7122 317.131 61.5078 312.258 61.5078V63.5078C316.854 63.5078 319.91 64.6471 321.702 66.6841L323.204 65.3628ZM312.258 61.5078C308.657 61.5078 305.466 62.324 302.721 63.991C299.978 65.657 297.737 68.1385 295.98 71.3833L297.739 72.3354C299.357 69.3458 301.37 67.1516 303.759 65.7004C306.147 64.2502 308.968 63.5078 312.258 63.5078V61.5078ZM295.859 71.8594V126H297.859V71.8594H295.859ZM296.859 125H279.773V127H296.859V125ZM280.773 126V49.9219H278.773V126H280.773ZM279.773 50.9219H295.875V48.9219H279.773V50.9219ZM367.312 117.211L366.598 117.911L366.603 117.916L367.312 117.211ZM361.617 67.5L360.72 67.0584L360.719 67.0613L361.617 67.5ZM415.688 58.4297L414.926 59.0778L414.929 59.0809L415.688 58.4297ZM424.195 93.375V94.375H425.195V93.375H424.195ZM374.484 93.375V92.375H373.399L373.488 93.4568L374.484 93.375ZM380.742 108.281L380.035 108.988L380.04 108.993L380.742 108.281ZM413.789 104.273L414.479 103.55L413.679 102.786L413 103.66L413.789 104.273ZM423 113.062L423.831 113.619L424.299 112.92L423.69 112.339L423 113.062ZM410.766 123.68L411.206 124.577L411.21 124.576L410.766 123.68ZM380.25 67.1484L379.501 66.4854L379.496 66.4915L380.25 67.1484ZM374.766 80.8594L373.775 80.7246L373.62 81.8594H374.766V80.8594ZM407.32 80.8594V81.8594H408.32V80.8594H407.32ZM407.32 79.5938H408.32V79.561L408.318 79.5283L407.32 79.5938ZM402.75 66.6562L402.008 67.3272L402.014 67.333L402.75 66.6562ZM393.68 126.406C383.08 126.406 374.559 123.089 368.022 116.506L366.603 117.916C373.566 124.927 382.623 128.406 393.68 128.406V126.406ZM368.027 116.511C361.54 109.888 358.258 101.063 358.258 89.9297H356.258C356.258 101.483 359.679 110.846 366.598 117.911L368.027 116.511ZM358.258 89.9297V87.8203H356.258V89.9297H358.258ZM358.258 87.8203C358.258 80.3563 359.685 73.7365 362.516 67.9387L360.719 67.0613C357.736 73.1698 356.258 80.0968 356.258 87.8203H358.258ZM362.514 67.9416C365.392 62.0959 369.395 57.5772 374.524 54.3545L373.46 52.6611C367.995 56.0947 363.749 60.9041 360.72 67.0584L362.514 67.9416ZM374.524 54.3545C379.655 51.1308 385.375 49.5156 391.711 49.5156V47.5156C385.015 47.5156 378.923 49.2285 373.46 52.6611L374.524 54.3545ZM391.711 49.5156C401.84 49.5156 409.528 52.7352 414.926 59.0778L416.449 57.7816C410.597 50.9054 402.301 47.5156 391.711 47.5156V49.5156ZM414.929 59.0809C420.394 65.4494 423.195 74.5371 423.195 86.4844H425.195C425.195 74.2441 422.325 64.6287 416.446 57.7785L414.929 59.0809ZM423.195 86.4844V93.375H425.195V86.4844H423.195ZM424.195 92.375H374.484V94.375H424.195V92.375ZM373.488 93.4568C374.018 99.9205 376.177 105.13 380.035 108.988L381.449 107.574C377.995 104.12 375.982 99.392 375.481 93.2932L373.488 93.4568ZM380.04 108.993C383.944 112.848 388.844 114.766 394.664 114.766V112.766C389.328 112.766 384.946 111.027 381.445 107.57L380.04 108.993ZM394.664 114.766C402.809 114.766 409.472 111.452 414.578 104.887L413 103.66C408.262 109.751 402.175 112.766 394.664 112.766V114.766ZM413.099 104.997L422.31 113.786L423.69 112.339L414.479 103.55L413.099 104.997ZM422.169 112.506C419.224 116.902 415.282 120.326 410.322 122.784L411.21 124.576C416.468 121.97 420.683 118.317 423.831 113.619L422.169 112.506ZM410.325 122.782C405.416 125.191 399.874 126.406 393.68 126.406V128.406C400.142 128.406 405.991 127.137 411.206 124.577L410.325 122.782ZM391.641 61.2266C386.689 61.2266 382.612 62.9736 379.501 66.4854L380.999 67.8115C383.701 64.7608 387.217 63.2266 391.641 63.2266V61.2266ZM379.496 66.4915C376.47 69.964 374.589 74.7392 373.775 80.7246L375.757 80.9941C376.536 75.2608 378.311 70.8954 381.004 67.8054L379.496 66.4915ZM374.766 81.8594H407.32V79.8594H374.766V81.8594ZM408.32 80.8594V79.5938H406.32V80.8594H408.32ZM408.318 79.5283C407.935 73.6818 406.369 69.1149 403.486 65.9795L402.014 67.333C404.475 70.0101 405.956 74.0682 406.322 79.6592L408.318 79.5283ZM403.492 65.9853C400.594 62.7831 396.599 61.2266 391.641 61.2266V63.2266C396.151 63.2266 399.562 64.6232 402.008 67.3272L403.492 65.9853ZM477.352 65.5312L477.187 66.5176L478.346 66.7108L478.352 65.5356L477.352 65.5312ZM454.57 73.9688L453.659 73.556L453.57 73.7528V73.9688H454.57ZM454.57 126V127H455.57V126H454.57ZM437.484 126H436.484V127H437.484V126ZM437.484 49.9219V48.9219H436.484V49.9219H437.484ZM453.797 49.9219L454.796 49.8723L454.749 48.9219H453.797V49.9219ZM454.219 58.4297L453.22 58.4792L453.378 61.6656L455.067 58.9591L454.219 58.4297ZM477.422 49.5L478.422 49.5044L478.425 48.8315L477.803 48.5753L477.422 49.5ZM477.516 64.5449C475.209 64.1604 472.834 63.9688 470.391 63.9688V65.9688C472.729 65.9688 474.994 66.1521 477.187 66.5176L477.516 64.5449ZM470.391 63.9688C466.352 63.9688 462.895 64.7424 460.07 66.3496C457.234 67.963 455.098 70.3811 453.659 73.556L455.481 74.3815C456.761 71.5564 458.622 69.4745 461.059 68.0879C463.507 66.6951 466.601 65.9688 470.391 65.9688V63.9688ZM453.57 73.9688V126H455.57V73.9688H453.57ZM454.57 125H437.484V127H454.57V125ZM438.484 126V49.9219H436.484V126H438.484ZM437.484 50.9219H453.797V48.9219H437.484V50.9219ZM452.798 49.9714L453.22 58.4792L455.218 58.3802L454.796 49.8723L452.798 49.9714ZM455.067 58.9591C459.024 52.6194 464.434 49.5156 471.375 49.5156V47.5156C463.691 47.5156 457.664 51.0212 453.37 57.9002L455.067 58.9591ZM471.375 49.5156C473.732 49.5156 475.607 49.8342 477.041 50.4247L477.803 48.5753C476.049 47.8533 473.893 47.5156 471.375 47.5156V49.5156ZM476.422 49.4956L476.352 65.5269L478.352 65.5356L478.422 49.5044L476.422 49.4956ZM526.992 98.3672L526.452 99.2089L526.459 99.2134L526.992 98.3672ZM499.992 89.5078L499.557 90.4081L499.558 90.4087L499.992 89.5078ZM538.594 55.2656L537.966 56.0439L537.969 56.0465L538.594 55.2656ZM547.031 72.7734V73.7734H548.031V72.7734H547.031ZM529.945 72.7734H528.945V73.7734H529.945V72.7734ZM526.289 64.6172L525.618 65.3591L525.626 65.3662L526.289 64.6172ZM507.375 63.9141L506.788 63.1046L506.78 63.1102L507.375 63.9141ZM520.523 81.4219L520.305 82.3978L520.312 82.3992L520.523 81.4219ZM536.273 86.6953L535.796 87.574L535.803 87.5775L535.809 87.5809L536.273 86.6953ZM544.781 94.0078L543.939 94.5465L543.945 94.5562L544.781 94.0078ZM539.086 121.078L539.683 121.881L539.687 121.877L539.086 121.078ZM484.664 102.023V101.023H483.664V102.023H484.664ZM501.258 102.023L502.256 101.965L502.201 101.023H501.258V102.023ZM505.828 111.375L505.211 112.162L505.22 112.169L505.828 111.375ZM527.273 112.078L527.858 112.89L527.868 112.882L527.273 112.078ZM531.789 105.328C531.789 101.945 530.354 99.3019 527.525 97.521L526.459 99.2134C528.693 100.62 529.789 102.617 529.789 105.328H531.789ZM527.532 97.5255C524.887 95.8285 520.588 94.3934 514.752 93.1697L514.342 95.1272C520.131 96.341 524.129 97.7183 526.452 99.2089L527.532 97.5255ZM514.752 93.1697C508.991 91.9619 504.223 90.4365 500.426 88.607L499.558 90.4087C503.543 92.3291 508.477 93.8975 514.342 95.1272L514.752 93.1697ZM500.427 88.6075C496.27 86.5974 493.22 84.1685 491.208 81.3507C489.205 78.5435 488.195 75.2985 488.195 71.5781H486.195C486.195 75.6859 487.319 79.3433 489.581 82.5126C491.835 85.6714 495.183 88.2932 499.557 90.4081L500.427 88.6075ZM488.195 71.5781C488.195 65.3463 490.801 60.1406 496.115 55.9072L494.869 54.3428C489.121 58.9219 486.195 64.685 486.195 71.5781H488.195ZM496.115 55.9072C501.435 51.6694 508.233 49.5156 516.586 49.5156V47.5156C507.877 47.5156 500.612 49.7681 494.869 54.3428L496.115 55.9072ZM516.586 49.5156C525.514 49.5156 532.609 51.7223 537.966 56.0439L539.222 54.4873C533.422 49.8089 525.846 47.5156 516.586 47.5156V49.5156ZM537.969 56.0465C543.358 60.3577 546.031 65.9069 546.031 72.7734H548.031C548.031 65.2962 545.079 59.1735 539.218 54.4848L537.969 56.0465ZM547.031 71.7734H529.945V73.7734H547.031V71.7734ZM530.945 72.7734C530.945 69.2084 529.606 66.216 526.952 63.8682L525.626 65.3662C527.847 67.3308 528.945 69.7759 528.945 72.7734H530.945ZM526.96 63.8753C524.299 61.4704 520.806 60.3125 516.586 60.3125V62.3125C520.428 62.3125 523.404 63.3577 525.619 65.3591L526.96 63.8753ZM516.586 60.3125C512.682 60.3125 509.39 61.2166 506.788 63.1046L507.962 64.7235C510.141 63.1428 512.99 62.3125 516.586 62.3125V60.3125ZM506.78 63.1102C504.183 65.0324 502.859 67.6505 502.859 70.875H504.859C504.859 68.287 505.88 66.2644 507.97 64.7179L506.78 63.1102ZM502.859 70.875C502.859 73.8383 504.132 76.19 506.613 77.827L507.715 76.1574C505.79 74.8881 504.859 73.1617 504.859 70.875H502.859ZM506.613 77.827C508.989 79.3941 513.615 80.9007 520.305 82.3977L520.742 80.446C514.026 78.9431 509.745 77.4965 507.715 76.1574L506.613 77.827ZM520.312 82.3992C526.97 83.8425 532.117 85.5753 535.796 87.574L536.751 85.8166C532.836 83.6903 527.484 81.9075 520.735 80.4446L520.312 82.3992ZM535.809 87.5809C539.541 89.5378 542.227 91.8691 543.939 94.5465L545.624 93.4692C543.679 90.4278 540.694 87.884 536.738 85.8097L535.809 87.5809ZM543.945 94.5562C545.694 97.2234 546.594 100.493 546.594 104.414H548.594C548.594 100.179 547.618 96.5109 545.617 93.4595L543.945 94.5562ZM546.594 104.414C546.594 110.93 543.916 116.194 538.485 120.279L539.687 121.877C545.599 117.431 548.594 111.585 548.594 104.414H546.594ZM538.489 120.276C533.035 124.332 525.834 126.406 516.797 126.406V128.406C526.135 128.406 533.793 126.261 539.683 121.881L538.489 120.276ZM516.797 126.406C510.684 126.406 505.276 125.304 500.552 123.123L499.714 124.939C504.74 127.259 510.441 128.406 516.797 128.406V126.406ZM500.552 123.123C495.819 120.939 492.17 117.955 489.565 114.182L487.919 115.318C490.752 119.42 494.696 122.624 499.714 124.939L500.552 123.123ZM489.565 114.182C486.955 110.402 485.664 106.356 485.664 102.023H483.664C483.664 106.784 485.092 111.223 487.919 115.318L489.565 114.182ZM484.664 103.023H501.258V101.023H484.664V103.023ZM500.259 102.081C500.508 106.358 502.142 109.758 505.211 112.162L506.445 110.588C503.889 108.586 502.476 105.752 502.256 101.965L500.259 102.081ZM505.22 112.169C508.254 114.495 512.215 115.609 517.008 115.609V113.609C512.519 113.609 509.027 112.567 506.437 110.581L505.22 112.169ZM517.008 115.609C521.608 115.609 525.273 114.751 527.858 112.89L526.689 111.267C524.587 112.78 521.407 113.609 517.008 113.609V115.609ZM527.868 112.882C530.451 110.971 531.789 108.43 531.789 105.328H529.789C529.789 107.757 528.784 109.717 526.679 111.274L527.868 112.882Z" fill="white" fill-opacity="0.25"/>
<path d="M93.5312 109.094V126H85.625V80.5H103.031C108.115 80.5 112.146 81.8229 115.125 84.4688C118.125 87.1146 119.625 90.6146 119.625 94.9688C119.625 99.4271 118.156 102.896 115.219 105.375C112.302 107.854 108.208 109.094 102.938 109.094H93.5312ZM93.5312 102.75H103.031C105.844 102.75 107.99 102.094 109.469 100.781C110.948 99.4479 111.688 97.5312 111.688 95.0312C111.688 92.5729 110.938 90.6146 109.438 89.1562C107.938 87.6771 105.875 86.9167 103.25 86.875H93.5312V102.75ZM145.656 126C145.323 125.354 145.031 124.302 144.781 122.844C142.365 125.365 139.406 126.625 135.906 126.625C132.51 126.625 129.74 125.656 127.594 123.719C125.448 121.781 124.375 119.385 124.375 116.531C124.375 112.927 125.708 110.167 128.375 108.25C131.062 106.312 134.896 105.344 139.875 105.344H144.531V103.125C144.531 101.375 144.042 99.9792 143.062 98.9375C142.083 97.875 140.594 97.3438 138.594 97.3438C136.865 97.3438 135.448 97.7812 134.344 98.6562C133.24 99.5104 132.688 100.604 132.688 101.938H125.094C125.094 100.083 125.708 98.3542 126.938 96.75C128.167 95.125 129.833 93.8542 131.938 92.9375C134.062 92.0208 136.427 91.5625 139.031 91.5625C142.99 91.5625 146.146 92.5625 148.5 94.5625C150.854 96.5417 152.062 99.3333 152.125 102.938V118.188C152.125 121.229 152.552 123.656 153.406 125.469V126H145.656ZM137.312 120.531C138.812 120.531 140.219 120.167 141.531 119.438C142.865 118.708 143.865 117.729 144.531 116.5V110.125H140.438C137.625 110.125 135.51 110.615 134.094 111.594C132.677 112.573 131.969 113.958 131.969 115.75C131.969 117.208 132.448 118.375 133.406 119.25C134.385 120.104 135.688 120.531 137.312 120.531ZM177.781 99.125C176.781 98.9583 175.75 98.875 174.688 98.875C171.208 98.875 168.865 100.208 167.656 102.875V126H160.062V92.1875H167.312L167.5 95.9688C169.333 93.0312 171.875 91.5625 175.125 91.5625C176.208 91.5625 177.104 91.7083 177.812 92L177.781 99.125ZM193.656 83.9688V92.1875H199.625V97.8125H193.656V116.688C193.656 117.979 193.906 118.917 194.406 119.5C194.927 120.062 195.844 120.344 197.156 120.344C198.031 120.344 198.917 120.24 199.812 120.031V125.906C198.083 126.385 196.417 126.625 194.812 126.625C188.979 126.625 186.062 123.406 186.062 116.969V97.8125H180.5V92.1875H186.062V83.9688H193.656ZM212.5 92.1875L212.719 96.0938C215.219 93.0729 218.5 91.5625 222.562 91.5625C229.604 91.5625 233.188 95.5938 233.312 103.656V126H225.719V104.094C225.719 101.948 225.25 100.365 224.312 99.3438C223.396 98.3021 221.885 97.7812 219.781 97.7812C216.719 97.7812 214.438 99.1667 212.938 101.938V126H205.344V92.1875H212.5ZM255.969 126.625C251.156 126.625 247.25 125.115 244.25 122.094C241.271 119.052 239.781 115.01 239.781 109.969V109.031C239.781 105.656 240.427 102.646 241.719 100C243.031 97.3333 244.865 95.2604 247.219 93.7812C249.573 92.3021 252.198 91.5625 255.094 91.5625C259.698 91.5625 263.25 93.0312 265.75 95.9688C268.271 98.9062 269.531 103.062 269.531 108.438V111.5H247.438C247.667 114.292 248.594 116.5 250.219 118.125C251.865 119.75 253.927 120.562 256.406 120.562C259.885 120.562 262.719 119.156 264.906 116.344L269 120.25C267.646 122.271 265.833 123.844 263.562 124.969C261.312 126.073 258.781 126.625 255.969 126.625ZM255.062 97.6562C252.979 97.6562 251.292 98.3854 250 99.8438C248.729 101.302 247.917 103.333 247.562 105.938H262.031V105.375C261.865 102.833 261.188 100.917 260 99.625C258.812 98.3125 257.167 97.6562 255.062 97.6562ZM293.156 99.125C292.156 98.9583 291.125 98.875 290.062 98.875C286.583 98.875 284.24 100.208 283.031 102.875V126H275.438V92.1875H282.688L282.875 95.9688C284.708 93.0312 287.25 91.5625 290.5 91.5625C291.583 91.5625 292.479 91.7083 293.188 92L293.156 99.125ZM316.906 116.812C316.906 115.458 316.344 114.427 315.219 113.719C314.115 113.01 312.271 112.385 309.688 111.844C307.104 111.302 304.948 110.615 303.219 109.781C299.427 107.948 297.531 105.292 297.531 101.812C297.531 98.8958 298.76 96.4583 301.219 94.5C303.677 92.5417 306.802 91.5625 310.594 91.5625C314.635 91.5625 317.896 92.5625 320.375 94.5625C322.875 96.5625 324.125 99.1562 324.125 102.344H316.531C316.531 100.885 315.99 99.6771 314.906 98.7188C313.823 97.7396 312.385 97.25 310.594 97.25C308.927 97.25 307.562 97.6354 306.5 98.4062C305.458 99.1771 304.938 100.208 304.938 101.5C304.938 102.667 305.427 103.573 306.406 104.219C307.385 104.865 309.365 105.521 312.344 106.188C315.323 106.833 317.656 107.615 319.344 108.531C321.052 109.427 322.312 110.51 323.125 111.781C323.958 113.052 324.375 114.594 324.375 116.406C324.375 119.448 323.115 121.917 320.594 123.812C318.073 125.688 314.771 126.625 310.688 126.625C307.917 126.625 305.448 126.125 303.281 125.125C301.115 124.125 299.427 122.75 298.219 121C297.01 119.25 296.406 117.365 296.406 115.344H303.781C303.885 117.135 304.562 118.521 305.812 119.5C307.062 120.458 308.719 120.938 310.781 120.938C312.781 120.938 314.302 120.562 315.344 119.812C316.385 119.042 316.906 118.042 316.906 116.812Z" fill="white"/>
</svg>
